HIERARCHY
ROOT Hips
{
	OFFSET	0.00	0.00	0.00
	CHANNELS 6 Xposition Yposition Zposition Zrotation Xrotation Yrotation
	JOINT Spine
	{
		OFFSET	 0.00	0.01	 0.00
		CHANNELS 3 Zrotation Xrotation Yrotation
		JOINT Spine1
		{
			OFFSET	 0.00	 2.45913012437421	 0.00
			CHANNELS 3 Zrotation Xrotation Yrotation
            JOINT Neck
            {
                OFFSET	 0.00	 2.48462964506057	 0.00
                CHANNELS 3 Zrotation Xrotation Yrotation
                JOINT Head
                {
                    OFFSET	 0.00	 0.927524780924562	 0.00
                    CHANNELS 3 Zrotation Xrotation Yrotation
                    End Site 
                    {
                        OFFSET	 0.00	 1.14999962169752	 0.00
                    }
                }
            }
			JOINT LeftShoulder
			{
				OFFSET	 0.00	 2.48462964506057	 0.00
				CHANNELS 3 Zrotation Xrotation Yrotation
				JOINT LeftUpArm
				{
					OFFSET	 0.00	 1.24881979654096	 0.00
					CHANNELS 3 Zrotation Xrotation Yrotation
					JOINT LeftForeArm
					{
						OFFSET	 0.00	2.59758046908119	 0.00
						CHANNELS 3 Zrotation Xrotation Yrotation
						JOINT LeftHand
						{
							OFFSET	 0.00	2.45542024364365	 0.00
							CHANNELS 3 Zrotation Xrotation Yrotation
							JOINT LeftHandThumb 
							{
								OFFSET	 0.00	0.00	 0.00
								CHANNELS 3 Zrotation Xrotation Yrotation
								End Site
								{
									OFFSET	 0.00	0.00	1.00000003353624
								}
							}
							JOINT L_Wrist_End 
							{
								OFFSET	 0.00	0.99999967115358	 0.00
								CHANNELS 3 Zrotation Xrotation Yrotation
								End Site 
								{
									OFFSET	 0.00	 0.00	 0.00
								}
							}
						}
					}
				}
			}
			JOINT RightShoulder
			{
				OFFSET	 0.00	 2.48462964506057	 0.00
				CHANNELS 3 Zrotation Xrotation Yrotation
				JOINT RightUpArm
				{
					OFFSET	 0.00	 1.24881979654096	 0.00
					CHANNELS 3 Zrotation Xrotation Yrotation
					JOINT RightForeArm
					{
						OFFSET	 0.00	2.59758046908119	 0.00
						CHANNELS 3 Zrotation Xrotation Yrotation
						JOINT RightHand
						{
							OFFSET	 0.00	2.45542024364365	 0.00
							CHANNELS 3 Zrotation Xrotation Yrotation
							JOINT RightHandThumb 
							{
								OFFSET	 0.00	0.00	 0.00
								CHANNELS 3 Zrotation Xrotation Yrotation
								End Site
								{
									OFFSET	 0.00	0.00	1.00000003353624
								}
							}
							JOINT R_Wrist_End 
							{
								OFFSET	 0.00	0.99999967115358	 0.00
								CHANNELS 3 Zrotation Xrotation Yrotation
								End Site 
								{
									OFFSET	 0.00	 0.00	 0.00
								}
							}
						}
					}
				}
			}
		}
	}
	JOINT LeftUpLeg
	{
		OFFSET	 1.2719394002717	 0.00	 0.00
		CHANNELS 3 Zrotation Xrotation Yrotation
		JOINT LeftLowLeg
		{
			OFFSET	 0.00	-4.3429100912261	 0.00
			CHANNELS 3 Zrotation Xrotation Yrotation
			JOINT LeftFoot
			{
				OFFSET	 0.00	-4.48767017425826	 0.00
				CHANNELS 3 Zrotation Xrotation Yrotation
				JOINT LeftToeBase
                {
                    OFFSET	 0.00	0.00	 1.51507020887566
                    CHANNELS 3 Zrotation Xrotation Yrotation
                    End Site 
                    {
                        OFFSET	 0.00	0.00	 0.75000010571191
                    }
                }
			}
		}
	}
	JOINT RightUpLeg
	{
		OFFSET	 -1.2719393604653	 0.00	 0.00
		CHANNELS 3 Zrotation Xrotation Yrotation
		JOINT RightLowLeg
		{
			OFFSET	 0.00	-4.3429100912261	 0.00
			CHANNELS 3 Zrotation Xrotation Yrotation
			JOINT RightFoot
			{
				OFFSET	 0.00	-4.48767017425826	 0.00
				CHANNELS 3 Zrotation Xrotation Yrotation
				JOINT RightToeBase
                {
                    OFFSET	 0.00	0.00	 1.51507020887566
                    CHANNELS 3 Zrotation Xrotation Yrotation
                    End Site 
                    {
                        OFFSET	 0.00	0.00	 0.749999965609858
                    }
                }   
			}
		}
	}
}
MOTION 
Frames:	10 
Frame Time: 0.02 
  -0.7855410003662109 8.37427978515625 9.355609741210937 155.138 78.5115 -169.535 -0.392689 -3.29717 -1.58042 -0.972563 22.5 1.14953 11.1268 46.7313 359.334 -94.7349 -83.1453 274.945 -112.837 4.76293 369.075 -43.7287 29.1479 1.496 0.0 95.8127 0.0 -34.1077 -7.22875 -78.5365 0.0 0.0 0.0 0.0 0.0 0.0 117.4327 -1.62519 -365.338 37.2229 18.8198 -381.194 0.0 115.801 0.0 -35.7452 14.9715 -45.4322 0.0 0.0 0.0 0.0 0.0 0.0 -2.63129 -10.5135 -356.282 0.0 13.0528 0.0 -19.0482 -6.5203 11.4866 0.0 -19.24126 0.0 0.142014 -21.444 14.4702 0.0 27.5101 0.0 35.6046 -4.171301 3.49466 0.0 -18.40204 0.0 
  -0.7845040130615234 8.377860107421874 9.355490112304688 155.089 78.5106 -169.533 -0.400689 -3.27161 -1.58433 -0.968467 22.4502 1.14662 11.0282 46.8013 359.433 -94.8455 -83.1009 274.811 -112.8319 4.75611 369.015 -43.7551 29.0828 1.52237 0.0 95.8017 0.0 -34.1702 -7.20307 -78.5495 0.0 0.0 0.0 0.0 0.0 0.0 117.4403 -1.61128 -365.341 37.2705 18.6896 -381.107 0.0 115.786 0.0 -35.077 15.1925 -45.5173 0.0 0.0 0.0 0.0 0.0 0.0 -2.63732 -10.5285 -356.27 0.0 13.0482 0.0 -19.048 -6.5249996 11.5165 0.0 -19.24148 0.0 0.145983 -21.5016 14.4792 0.0 27.553 0.0 35.5765 -4.1322994 3.49717 0.0 -18.39762 0.0 
  -0.78345703125 8.382069702148437 9.35531982421875 154.989 78.514 -169.498 -0.41467 -3.24326 -1.57861 -0.975093 22.3916 1.15106 10.9476 46.8971 359.525 -94.9643 -83.0713 274.707 -112.828 4.75805 369.03 -43.7582 29.055 1.48042 0.0 95.7938 0.0 -34.2233 -7.14078 -78.6054 0.0 0.0 0.0 0.0 0.0 0.0 117.4324 -1.58288 -365.357 37.3609 18.5886 -381.243 0.0 115.795 0.0 -35.2691 15.3753 -45.7052 0.0 0.0 0.0 0.0 0.0 0.0 -2.64447 -10.5355 -356.209 0.0 13.0359 0.0 -19.0534 -6.5249004 11.5123 0.0 -19.22366 0.0 0.147128 -21.5541 14.5043 0.0 27.5895 0.0 35.5466 -4.0935 3.50905 0.0 -18.41194 0.0 
  -0.782238998413086 8.387030029296875 9.355 154.904 78.4998 -169.468 -0.41832 -3.22588 -1.56349 -0.993648 22.3329 1.1595 10.9579 46.9873 359.518 -95.152 -83.0614 274.562 -112.827805 4.73658 369.07 -43.7468 29.0874 1.45193 0.0 95.7917 0.0 -34.1917 -7.09507 -78.703 0.0 0.0 0.0 0.0 0.0 0.0 117.4768 -1.61585 -365.313 37.4449 18.6902 -381.55 0.0 115.983 0.0 -35.8737 14.4969 -45.7223 0.0 0.0 0.0 0.0 0.0 0.0 -2.65826 -10.5523 -356.211 0.0 12.9967 0.0 -19.0318 -6.5202007 11.5614 0.0 -19.22292 0.0 0.14657 -21.6167 14.5472 0.0 27.6083 0.0 35.544 -4.0643005 3.51899 0.0 -18.41594 0.0 
  -0.781405029296875 8.390880126953125 9.354829711914062 154.836 78.5089 -169.436 -0.423721 -3.20161 -1.56456 -0.992469 22.3046 1.15892 10.9464 47.0509 359.543 -95.3211 -83.0534 274.394 -112.8007 4.75683 369.072 -43.7867 29.0586 1.41104 0.0 95.8067 0.0 -34.1986 -7.06981 -78.7018 0.0 0.0 0.0 0.0 0.0 0.0 117.4823 -1.56032 -365.337 37.5417 18.6875 -381.699 0.0 116.094 0.0 -36.1635 14.3243 -45.6161 0.0 0.0 0.0 0.0 0.0 0.0 -2.66217 -10.5574 -356.174 0.0 12.9877 0.0 -19.0307 -6.5144005 11.5649 0.0 -19.206669 0.0 0.141291 -21.6359 14.5426 0.0 27.5993 0.0 35.5652 -4.0324 3.54395 0.0 -18.37411 0.0 
  -0.7804160308837891 8.39468994140625 9.35489990234375 154.802 78.5144 -169.415 -0.421917 -3.17335 -1.57155 -0.981586 22.2598 1.1539 10.9576 47.1404 359.544 -95.4684 -83.0502 274.283 -112.792404 4.7516 369.018 -43.8478 29.0174 1.45725 0.0 95.796 0.0 -34.2353 -7.06071 -78.7089 0.0 0.0 0.0 0.0 0.0 0.0 117.5081 -1.48657 -365.369 37.5983 18.6558 -381.57 0.0 116.057 0.0 -35.6447 14.878 -45.5704 0.0 0.0 0.0 0.0 0.0 0.0 -2.66235 -10.5788 -356.146 0.0 12.9967 0.0 -19.0332 -6.4990005 11.5391 0.0 -19.20075 0.0 0.140274 -21.644 14.5543 0.0 27.5773 0.0 35.565 -4.0233994 3.5254 0.0 -18.40976 0.0 
  -0.779573974609375 8.397969970703125 9.3547802734375 154.757 78.508 -169.382 -0.426747 -3.1476 -1.58056 -0.959231 22.1905 1.15178 10.9694 47.2614 359.535 -95.6775 -83.0277 274.072 -112.8258 4.73751 369.145 -43.7791 29.1075 1.35719 0.0 95.7633 0.0 -34.1481 -7.00552 -78.6797 0.0 0.0 0.0 0.0 0.0 0.0 117.507 -1.47725 -365.309 37.6553 18.7052 -381.873 0.0 116.194 0.0 -36.0919 14.2605 -46.0138 0.0 0.0 0.0 0.0 0.0 0.0 -2.6714 -10.6122 -356.16 0.0 13.0156 0.0 -19.0021 -6.496599 11.5775 0.0 -19.21767 0.0 0.134794 -21.6664 14.5768 0.0 27.5637 0.0 35.5604 -4.019699 3.51267 0.0 -18.40998 0.0 
  -0.7781999969482422 8.402230224609376 9.354810180664062 154.71 78.5086 -169.355 -0.394568 -3.09765 -1.54738 -0.995924 22.1261 1.16803 11.0779 47.3004 359.448 -95.7386 -83.0646 274.019 -112.7806 4.79654 369.038 -43.8735 28.9875 1.44111 0.0 95.7877 0.0 -34.1357 -7.02291 -78.63 0.0 0.0 0.0 0.0 0.0 0.0 117.5588 -1.51899 -365.392 37.6823 18.8892 -381.689 0.0 116.122 0.0 -35.1209 14.8488 -44.9692 0.0 0.0 0.0 0.0 0.0 0.0 -2.68091 -10.641 -356.167 0.0 13.0263 0.0 -19.0389 -6.499399 11.5812 0.0 -19.191021 0.0 0.126863 -21.6896 14.5829 0.0 27.5493 0.0 35.5783 -3.9916 3.52055 0.0 -18.4068 0.0 
  -0.7764440155029297 8.406170043945313 9.354929809570313 154.705 78.5063 -169.357 -0.339991 -3.07695 -1.51001 -1.04111 22.0962 1.18286 11.2547 47.3177 359.27 -95.8708 -83.1088 273.935 -112.754 4.85143 368.928 -43.9407 28.9026 1.50949 0.0 95.7887 0.0 -34.2163 -7.02611 -78.6661 0.0 0.0 0.0 0.0 0.0 0.0 117.492004 -1.43624 -365.229 37.8791 18.7366 -382.024 0.0 116.186 0.0 -35.6218 14.8435 -44.9206 0.0 0.0 0.0 0.0 0.0 0.0 -2.68988 -10.6672 -356.181 0.0 13.0209 0.0 -19.0275 -6.4934998 11.6237 0.0 -19.22003 0.0 0.11666 -21.7153 14.5648 0.0 27.5355 0.0 35.5592 -3.9624996 3.52006 0.0 -18.40931 0.0 
  -0.7749800109863281 8.409879760742188 9.355070190429688 154.656 78.4944 -169.311 -0.312367 -3.06979 -1.50393 -1.04946 22.0706 1.18115 11.2517 47.3539 359.285 -95.8971 -83.1083 273.894 -112.7632 4.84349 369.067 -43.8771 29.0259 1.38081 0.0 95.758 0.0 -34.1534 -6.99219 -78.6454 0.0 0.0 0.0 0.0 0.0 0.0 117.505 -1.54057 -365.318 37.8822 18.9836 -382.189 0.0 116.133 0.0 -35.8564 15.0239 -44.8651 0.0 0.0 0.0 0.0 0.0 0.0 -2.70386 -10.7009 -356.167 0.0 13.0154 0.0 -19.0262 -6.469101 11.617 0.0 -19.2194 0.0 0.106931 -21.7521 14.5919 0.0 27.539 0.0 35.5765 -3.9547997 3.5089 0.0 -18.40214 0.0 
